<svg width="65" height="65" viewBox="0 0 65 65" fill="none" xmlns="http://www.w3.org/2000/svg">
<path fill-rule="evenodd" clip-rule="evenodd" d="M20.2469 0.637695C21.9386 0.637695 23.3101 2.00915 23.3101 3.70092V5.23252H41.6894V3.70092C41.6894 2.00915 43.0609 0.637695 44.7526 0.637695C46.4444 0.637695 47.8158 2.00915 47.8158 3.70092V5.23252H58.5371C61.9207 5.23252 64.6636 7.97545 64.6636 11.359V58.8389C64.6636 62.2225 61.9207 64.9653 58.5371 64.9653H6.46238C3.07887 64.9653 0.335938 62.2225 0.335938 58.8389V11.359C0.335938 7.97542 3.07884 5.23252 6.46238 5.23252H17.1836V3.70092C17.1836 2.00915 18.5551 0.637695 20.2469 0.637695ZM17.1836 11.359H6.46238V23.6118H58.5371V11.359H47.8158V15.9538C47.8158 17.6456 46.4444 19.017 44.7526 19.017C43.0609 19.017 41.6894 17.6456 41.6894 15.9538V11.359H23.3101V15.9538C23.3101 17.6456 21.9386 19.017 20.2469 19.017C18.5551 19.017 17.1836 17.6456 17.1836 15.9538V11.359ZM58.5371 29.7383H6.46238V58.8389H58.5371V29.7383ZM14.1204 37.3963C14.1204 35.7046 15.4919 34.3331 17.1836 34.3331H26.3733C28.0651 34.3331 29.4365 35.7046 29.4365 37.3963C29.4365 39.0881 28.0651 40.4596 26.3733 40.4596H17.1836C15.4919 40.4596 14.1204 39.0881 14.1204 37.3963ZM35.563 37.3963C35.563 35.7046 36.9344 34.3331 38.6262 34.3331H47.8158C49.5076 34.3331 50.8791 35.7046 50.8791 37.3963C50.8791 39.0881 49.5076 40.4596 47.8158 40.4596H38.6262C36.9344 40.4596 35.563 39.0881 35.563 37.3963ZM14.1204 49.6492C14.1204 47.9574 15.4919 46.586 17.1836 46.586H26.3733C28.0651 46.586 29.4365 47.9574 29.4365 49.6492C29.4365 51.341 28.0651 52.7124 26.3733 52.7124H17.1836C15.4919 52.7124 14.1204 51.341 14.1204 49.6492ZM35.563 49.6492C35.563 47.9574 36.9344 46.586 38.6262 46.586H47.8158C49.5076 46.586 50.8791 47.9574 50.8791 49.6492C50.8791 51.341 49.5076 52.7124 47.8158 52.7124H38.6262C36.9344 52.7124 35.563 51.341 35.563 49.6492Z" fill="black" fill-opacity="0.85"/>
</svg>
