<svg width="60" height="60" viewBox="0 0 60 60" fill="none" xmlns="http://www.w3.org/2000/svg">
<path d="M28.1478 37.2608C30.3064 27.1925 35.9891 14.8309 39.8267 7C33.6827 26.2976 34.5683 33.0657 36.0628 41.4C37.0357 46.8257 33.2952 48.1867 31.192 47.8884C28.037 47.4409 26.7291 43.8775 28.1478 37.2608Z" fill="#044178" stroke="#044178" stroke-width="2" stroke-linecap="round" stroke-linejoin="round"/>
<path d="M52.8339 27.4165H44.8634C41.9299 27.4165 37.5572 27.5844 38.8303 31.5557C39.9061 34.9118 42.6494 37.4289 42.6494 41.7918C42.6494 45.2039 41.4871 48.56 37.3911 50.6296C32.3716 53.1658 27.4834 52.2836 24.0517 49.0634C21.7269 46.8819 20.3891 41.4562 22.1144 38.1561C23.6642 35.1915 25.2694 33.1778 25.2694 31.2761C25.2694 29.3744 25.2694 27.4165 20.6199 27.4165C17.1218 27.4165 11.8561 27.4165 8 27.4165" stroke="#044178" stroke-width="2" stroke-linecap="round" stroke-linejoin="round"/>
<path d="M46.5239 34.7439H52.9999" stroke="#044178" stroke-width="2" stroke-linecap="round" stroke-linejoin="round"/>
<path d="M8.05518 34.7998L17.6862 34.7998" stroke="#044178" stroke-width="2" stroke-linecap="round" stroke-linejoin="round"/>
</svg>
