<svg width="19" height="19" viewBox="0 0 19 19" fill="none" xmlns="http://www.w3.org/2000/svg">
<g clip-path="url(#clip0_550_510)">
<path d="M9.125 19C14.1646 19 18.25 14.9146 18.25 9.875C18.25 4.8354 14.1646 0.75 9.125 0.75C4.0854 0.75 0 4.8354 0 9.875C0 14.9146 4.0854 19 9.125 19Z" fill="#F0F0F0"/>
<path d="M9.12481 0.75C5.20139 0.75 1.85668 3.2263 0.567383 6.7011H17.6823C16.3929 3.2263 13.0482 0.75 9.12481 0.75Z" fill="#D80027"/>
<path d="M9.12481 18.9999C13.0482 18.9999 16.3929 16.5236 17.6822 13.0488H0.567383C1.85668 16.5236 5.20139 18.9999 9.12481 18.9999Z" fill="black"/>
<path d="M12.299 8.88333H9.91859C9.91859 8.44511 9.56332 8.08984 9.1251 8.08984C8.68689 8.08984 8.33162 8.44511 8.33162 8.88333H5.95117C5.95117 9.32158 6.33289 9.67681 6.7711 9.67681H6.74465C6.74465 10.1151 7.09989 10.4703 7.53814 10.4703C7.53814 10.9085 7.89337 11.2638 8.33162 11.2638H9.91859C10.3568 11.2638 10.7121 10.9085 10.7121 10.4703C11.1503 10.4703 11.5056 10.1151 11.5056 9.67681H11.4791C11.9174 9.67681 12.299 9.32158 12.299 8.88333Z" fill="#FF9811"/>
</g>
<defs>
<clipPath id="clip0_550_510">
<rect width="18.25" height="18.25" fill="white" transform="translate(0 0.75)"/>
</clipPath>
</defs>
</svg>
